<svg xmlns:xlink="http://www.w3.org/1999/xlink" xmlns="http://www.w3.org/2000/svg" id="wave" style="transform:rotate(180deg); transition: 0.3s" viewBox="0 0 1440 490"><defs><linearGradient id="sw-gradient-0" x1="0" x2="0" y1="1" y2="0"><stop stop-color="rgba(12, 140, 255, 1)" offset="0%"></stop><stop stop-color="rgba(12, 140, 255, 1)" offset="100%"></stop></linearGradient></defs><path style="transform:translate(0, 0px); opacity:1" fill="url(#sw-gradient-0)" d="M0,245L120,253.2C240,261,480,278,720,236.8C960,196,1200,98,1440,114.3C1680,131,1920,261,2160,326.7C2400,392,2640,392,2880,392C3120,392,3360,392,3600,351.2C3840,310,4080,229,4320,196C4560,163,4800,180,5040,212.3C5280,245,5520,294,5760,302.2C6000,310,6240,278,6480,261.3C6720,245,6960,245,7200,204.2C7440,163,7680,82,7920,114.3C8160,147,8400,294,8640,310.3C8880,327,9120,212,9360,163.3C9600,114,9840,131,10080,171.5C10320,212,10560,278,10800,261.3C11040,245,11280,147,11520,106.2C11760,65,12000,82,12240,73.5C12480,65,12720,33,12960,32.7C13200,33,13440,65,13680,98C13920,131,14160,163,14400,187.8C14640,212,14880,229,15120,228.7C15360,229,15600,212,15840,245C16080,278,16320,359,16560,326.7C16800,294,17040,147,17160,73.5L17280,0L17280,490L17160,490C17040,490,16800,490,16560,490C16320,490,16080,490,15840,490C15600,490,15360,490,15120,490C14880,490,14640,490,14400,490C14160,490,13920,490,13680,490C13440,490,13200,490,12960,490C12720,490,12480,490,12240,490C12000,490,11760,490,11520,490C11280,490,11040,490,10800,490C10560,490,10320,490,10080,490C9840,490,9600,490,9360,490C9120,490,8880,490,8640,490C8400,490,8160,490,7920,490C7680,490,7440,490,7200,490C6960,490,6720,490,6480,490C6240,490,6000,490,5760,490C5520,490,5280,490,5040,490C4800,490,4560,490,4320,490C4080,490,3840,490,3600,490C3360,490,3120,490,2880,490C2640,490,2400,490,2160,490C1920,490,1680,490,1440,490C1200,490,960,490,720,490C480,490,240,490,120,490L0,490Z"></path></svg>